<svg width="414" height="52" viewBox="0 0 414 52" fill="none" xmlns="http://www.w3.org/2000/svg">
<path d="M394.629 0.280029H397.776V1.17621H396.727V4.16346H395.678V1.17621H394.629V0.280029Z" fill="#333333"/>
<path d="M399.575 4.16346L398.826 1.02684L398.676 4.16346H397.777L398.227 0.280029H399.575L400.025 2.96856L400.625 0.280029H401.973L402.273 4.16346H401.374L401.224 1.02684L400.475 4.16346H399.575Z" fill="#333333"/>
<path d="M329.439 7.00134L329.289 0.280029H335.584V28.5095H330.338L330.189 26.1197C328.69 28.0615 326.442 29.107 323.595 29.107C320.747 29.107 318.349 28.0615 316.251 25.821C314.153 23.5806 313.104 21.0414 313.104 18.0542C313.104 14.9176 314.153 12.229 316.101 9.98859C318.199 7.74815 320.597 6.70262 323.595 6.70262C325.992 6.70262 328.09 7.44943 329.589 8.94306C329.589 8.04688 329.439 7.44943 329.439 7.00134ZM328.09 21.7882C329.14 20.7427 329.589 19.3984 329.589 17.9048C329.589 16.2618 329.14 14.9176 328.09 13.872C327.041 12.8265 325.843 12.229 324.344 12.229C322.995 12.229 321.946 12.8265 321.047 13.872C320.148 14.9176 319.698 16.2618 319.698 17.9048C319.698 19.3984 320.148 20.7427 321.197 21.7882C322.096 22.8338 323.145 23.4312 324.344 23.4312C325.843 23.4312 327.191 22.8338 328.09 21.7882Z" fill="white"/>
<path d="M359.412 12.6776C358.812 12.3788 358.213 12.2295 357.463 12.2295C356.414 12.2295 355.515 12.6776 354.766 13.4244C354.016 14.1712 353.567 15.2167 353.567 16.2623V28.2113H347.123V7.0018H352.967C352.967 7.0018 352.967 7.59925 353.117 8.49542C353.117 9.54096 353.267 10.2878 353.267 10.8852C353.417 10.1384 353.867 9.3916 354.616 8.64479C355.815 7.30052 357.164 6.55371 358.812 6.55371C359.412 6.55371 359.861 6.55371 360.461 6.70307L359.412 12.6776Z" fill="white"/>
<path d="M371.401 23.4311C373.649 23.4311 375.447 22.3856 376.796 20.2945L381.592 23.2818C379.194 27.1652 375.747 29.1069 371.251 29.1069C369.003 29.1069 366.755 28.5095 364.807 27.1652C362.859 25.8209 361.51 24.1779 360.611 21.9375C360.011 20.5932 359.711 19.0996 359.711 17.606C359.711 15.3656 360.311 13.2745 361.66 11.3328C362.859 9.39106 364.657 8.0468 366.755 7.15062C367.954 6.70253 369.303 6.40381 370.652 6.40381C373.349 6.40381 375.747 7.29998 377.995 9.09233C380.243 10.8847 381.592 13.1251 382.041 15.6643L367.205 21.6388C368.254 22.8337 369.603 23.4311 371.401 23.4311ZM370.652 11.9302C370.052 11.9302 369.303 12.0796 368.703 12.3783C366.455 13.2745 365.406 15.0668 365.556 17.7554L374.698 14.0213C373.649 12.5277 372.3 11.9302 370.652 11.9302Z" fill="white"/>
<path d="M389.684 21.6393C390.733 22.6849 391.932 23.1329 393.431 23.1329C395.079 23.1329 396.428 22.5355 397.477 21.3406L401.823 25.0747C399.575 27.6138 396.728 28.9581 393.431 28.9581C390.433 28.9581 387.736 27.9125 385.638 25.6721C383.54 23.4317 382.341 20.8925 382.341 17.7559C382.341 14.6193 383.39 12.0801 385.638 9.83968C387.886 7.59925 390.433 6.55371 393.431 6.55371C396.578 6.55371 399.125 7.59925 401.224 9.69032L398.076 14.1712C396.728 12.8269 395.229 12.0801 393.281 12.0801C391.782 12.0801 390.583 12.6776 389.534 13.7231C388.485 14.7686 388.036 16.1129 388.036 17.7559C388.185 19.2495 388.635 20.5938 389.684 21.6393Z" fill="white"/>
<path d="M411.264 22.5348C411.714 22.9829 412.463 23.1323 413.213 23.1323L411.864 29.2562C409.766 29.2562 407.967 28.6587 406.319 27.3144C404.67 25.9702 403.771 24.1778 403.771 22.0868V12.3782H401.823V7.15051H403.771V0.429199H410.215V7.15051H412.463V12.3782H410.215V20.5931C410.215 21.3399 410.515 22.0868 411.264 22.5348Z" fill="white"/>
<path d="M344.725 8.3456V28.2108H338.281V8.3456C339.03 9.24178 340.229 9.83923 341.578 9.83923C342.777 9.83923 343.975 9.24178 344.725 8.3456ZM341.578 0.280029C339.33 0.280029 337.531 2.07238 337.531 4.31282C337.531 6.55325 339.33 8.3456 341.578 8.3456C343.826 8.3456 345.624 6.55325 345.624 4.31282C345.624 2.07238 343.676 0.280029 341.578 0.280029Z" fill="white"/>
<path d="M68.2263 10.2878C68.6759 9.3916 69.2754 8.64478 70.1746 7.89797C71.3735 7.0018 72.7223 6.55371 74.2209 6.55371C75.5697 6.55371 76.7686 6.85244 77.8176 7.59925C78.8667 8.34606 79.616 9.24223 80.0656 10.5865C80.3653 9.69032 81.1146 8.79415 81.8639 8.04734C83.0629 7.0018 84.4116 6.55371 86.0601 6.55371C88.0084 6.55371 89.507 7.15116 90.7059 8.49542C91.9048 9.83968 92.5043 11.3333 92.5043 13.275V28.3606H86.0601V14.6193C86.0601 13.8725 85.7604 13.4244 85.3108 12.9763C84.8612 12.5282 84.2618 12.2295 83.5124 12.2295C82.7631 12.2295 82.0138 12.5282 81.4144 13.1257C80.8149 13.7231 80.5152 14.4699 80.5152 15.2167V28.3606H74.071V14.6193C74.071 12.9763 73.3217 12.0801 71.6732 12.0801C70.774 12.0801 70.0247 12.3788 69.5751 12.9763C68.9757 13.5737 68.6759 14.3206 68.6759 15.0674V28.2113H62.3817V7.15116H68.2263V10.2878Z" fill="#98C21F"/>
<path d="M116.483 17.7559C116.483 21.0419 115.434 23.7304 113.186 25.8215C111.088 27.9125 108.24 29.1074 105.093 29.1074C101.796 29.1074 99.0984 28.0619 97.0003 25.8215C94.7524 23.7304 93.7033 21.0419 93.7033 17.7559C93.7033 14.6193 94.7524 12.0801 97.0003 9.83968C99.2483 7.59925 101.946 6.55371 105.093 6.55371C108.24 6.55371 110.938 7.59925 113.186 9.83968C115.434 12.0801 116.483 14.7686 116.483 17.7559ZM110.338 17.9053C110.338 16.2623 109.889 14.918 108.989 13.8725C108.09 12.6776 106.741 12.0801 105.243 12.0801C103.594 12.0801 102.395 12.6776 101.496 13.7231C100.597 14.7686 100.147 16.2623 100.147 17.7559C100.147 19.3989 100.597 20.7431 101.346 21.938C102.246 23.1329 103.594 23.7304 105.243 23.7304C106.891 23.7304 108.24 23.1329 109.139 21.938C109.889 20.8925 110.338 19.5482 110.338 17.9053Z" fill="#98C21F"/>
<path d="M123.975 8.79388C125.474 7.30026 127.422 6.55345 129.97 6.55345C132.967 6.55345 135.365 7.59898 137.463 9.83942C139.561 12.0799 140.46 14.7684 140.46 17.905C140.46 20.8922 139.411 23.5808 137.313 25.6718C135.215 27.9123 132.817 28.9578 129.97 28.9578C127.123 28.9578 124.875 27.9123 123.376 25.9706L123.226 28.3604H117.981V0.130859H124.275L124.125 6.85217C124.125 7.44962 123.975 8.04707 123.975 8.79388ZM129.071 23.4314C130.27 23.4314 131.319 22.834 132.368 21.7884C133.267 20.7429 133.866 19.3986 133.866 17.905C133.866 16.262 133.417 14.9177 132.518 13.8722C131.619 12.8267 130.569 12.2292 129.221 12.2292C127.722 12.2292 126.523 12.8267 125.474 13.8722C124.425 14.9177 123.975 16.262 123.975 17.905C123.975 19.548 124.425 20.7429 125.474 21.7884C126.373 22.834 127.722 23.4314 129.071 23.4314Z" fill="#98C21F"/>
<path d="M158.894 28.9578C156.945 28.9578 155.147 28.211 153.498 26.7174C151.85 25.2238 151.101 23.5808 151.101 21.4897V0.130859H157.844V20.2948C157.844 22.0871 158.744 22.9833 160.692 22.9833L158.894 28.9578Z" fill="#98C21F"/>
<path d="M171.782 23.4311C174.03 23.4311 175.828 22.3856 177.177 20.2945L181.973 23.2818C179.575 27.1652 176.128 29.1069 171.632 29.1069C169.384 29.1069 167.136 28.5095 165.188 27.1652C163.24 25.8209 161.741 24.1779 160.992 21.9375C160.392 20.5932 160.092 19.0996 160.092 17.606C160.092 15.3656 160.692 13.2745 162.041 11.3328C163.24 9.39106 165.038 8.0468 167.136 7.15062C168.335 6.70253 169.684 6.40381 171.032 6.40381C173.73 6.40381 176.128 7.29998 178.376 9.09233C180.624 10.8847 181.973 13.1251 182.422 15.6643L167.586 21.6388C168.635 22.8337 170.133 23.4311 171.782 23.4311ZM171.182 11.9302C170.583 11.9302 169.834 12.0796 169.234 12.3783C166.986 13.2745 165.937 15.0668 166.087 17.7554L175.229 14.0213C174.03 12.5277 172.681 11.9302 171.182 11.9302Z" fill="#98C21F"/>
<path d="M195.31 6.55371C198.158 6.55371 200.556 7.59925 202.654 9.83968C204.752 12.0801 205.801 14.6193 205.801 17.7559C205.801 20.8925 204.752 23.581 202.804 25.8215C200.706 28.0619 198.308 29.1074 195.46 29.1074C192.913 29.1074 190.964 28.3606 189.466 26.7176C189.616 27.0164 189.616 27.4645 189.616 28.51L189.765 35.53H183.321V7.15116H188.567L188.716 9.54096C190.365 7.59925 192.463 6.55371 195.31 6.55371ZM190.815 13.7231C189.765 14.7686 189.316 16.1129 189.316 17.7559C189.316 19.3989 189.765 20.5938 190.815 21.7887C191.864 22.8342 193.062 23.4317 194.561 23.4317C195.91 23.4317 196.959 22.8342 197.858 21.7887C198.757 20.7431 199.207 19.3989 199.207 17.7559C199.207 16.1129 198.757 14.7686 197.858 13.7231C196.959 12.6776 195.91 12.2295 194.411 12.2295C193.062 12.0801 191.864 12.6776 190.815 13.7231Z" fill="#98C21F"/>
<path d="M213.894 0.130859L213.744 7.59898C213.744 8.19643 213.744 8.79388 213.594 9.39133C214.793 7.44962 216.741 6.40408 219.289 6.40408C221.237 6.40408 222.885 7.00153 224.234 8.34579C225.733 9.83942 226.482 11.6318 226.482 14.0216V28.3604H219.888V14.9177C219.888 14.1709 219.588 13.4241 218.989 12.976C218.389 12.3786 217.79 12.2292 216.891 12.2292C216.141 12.2292 215.392 12.5279 214.793 12.976C214.193 13.4241 213.894 14.1709 213.894 14.9177V28.3604H207.3V0.130859H213.894Z" fill="#98C21F"/>
<path d="M250.611 17.7559C250.611 21.0419 249.562 23.7304 247.314 25.8215C245.066 27.9125 242.368 29.1074 239.221 29.1074C235.924 29.1074 233.227 28.0619 231.128 25.8215C228.88 23.7304 227.831 21.0419 227.831 17.7559C227.831 14.6193 228.88 12.0801 231.128 9.83968C233.376 7.59925 236.074 6.55371 239.221 6.55371C242.368 6.55371 245.066 7.59925 247.314 9.83968C249.412 12.0801 250.611 14.7686 250.611 17.7559ZM244.316 17.9053C244.316 16.2623 243.867 14.918 242.968 13.8725C242.068 12.6776 240.72 12.0801 239.221 12.0801C237.573 12.0801 236.374 12.6776 235.474 13.7231C234.575 14.7686 234.126 16.2623 234.126 17.7559C234.126 19.3989 234.575 20.7431 235.325 21.938C236.224 23.1329 237.573 23.7304 239.221 23.7304C240.87 23.7304 242.218 23.1329 243.118 21.938C243.867 20.8925 244.316 19.5482 244.316 17.9053Z" fill="#98C21F"/>
<path d="M251.81 7.15116H257.804L257.654 9.83968C259.003 7.59925 260.951 6.55371 263.649 6.55371C265.447 6.55371 267.096 7.15116 268.444 8.34606C269.943 9.69032 270.692 11.632 270.692 14.0218V28.3606H264.098V15.3661C264.098 13.1257 263.199 12.0801 261.251 12.0801C259.153 12.0801 258.254 13.5737 258.254 16.4116V28.3606H251.81V7.15116Z" fill="#98C21F"/>
<path d="M283.281 23.4311C285.529 23.4311 287.327 22.3856 288.676 20.2945L293.471 23.2818C291.074 27.1652 287.627 29.1069 283.131 29.1069C280.883 29.1069 278.635 28.5095 276.687 27.1652C274.738 25.8209 273.24 24.1779 272.49 21.9375C271.891 20.5932 271.591 19.0996 271.591 17.606C271.591 15.3656 272.191 13.2745 273.539 11.3328C274.738 9.39106 276.537 8.0468 278.635 7.15062C279.834 6.70253 281.183 6.40381 282.531 6.40381C285.229 6.40381 287.627 7.29998 289.875 9.09233C292.123 10.8847 293.471 13.1251 293.921 15.6643L279.084 21.6388C280.283 22.8337 281.632 23.4311 283.281 23.4311ZM282.681 11.9302C282.082 11.9302 281.332 12.0796 280.733 12.3783C278.485 13.2745 277.436 15.0668 277.586 17.7554L286.728 14.0213C285.678 12.5277 284.33 11.9302 282.681 11.9302Z" fill="#98C21F"/>
<path d="M303.812 11.1839C301.864 11.1839 300.965 11.7814 300.965 13.1257C300.965 13.8725 302.014 14.6193 303.962 15.2167C306.959 16.1129 308.758 16.7104 309.507 17.1584C311.455 18.204 312.504 19.847 312.504 21.938C312.504 24.1785 311.605 25.9708 309.807 27.3151C308.008 28.6594 305.761 29.2568 302.913 29.2568C299.766 29.2568 296.619 28.2113 293.771 26.2696L296.469 21.938C298.567 23.581 300.815 24.4772 302.913 24.4772C305.011 24.4772 306.06 23.8798 306.06 22.5355C306.06 21.7887 305.011 21.0419 303.063 20.4444C300.216 19.5482 298.267 18.8014 297.518 18.3533C295.57 17.1584 294.521 15.5155 294.521 13.4244C294.521 11.3333 295.42 9.54096 297.218 8.34606C298.867 7.15116 300.965 6.55371 303.213 6.55371C306.21 6.55371 309.058 7.44988 311.755 9.09287L309.207 13.275C307.559 11.7814 305.761 11.1839 303.812 11.1839Z" fill="#98C21F"/>
<path d="M148.704 8.3456V28.2108H142.259V8.3456C143.009 9.24178 144.208 9.83923 145.556 9.83923C146.905 9.83923 147.954 9.24178 148.704 8.3456ZM145.556 0.280029C143.308 0.280029 141.51 2.07238 141.51 4.31282C141.51 6.55325 143.308 8.3456 145.556 8.3456C147.804 8.3456 149.603 6.55325 149.603 4.31282C149.603 2.07238 147.804 0.280029 145.556 0.280029Z" fill="#98C21F"/>
<path d="M49.7931 0.130859H0.9375V49.1218H49.7931V0.130859Z" fill="#7ABA2E"/>
<path d="M22.0685 9.98872C21.3192 9.98872 20.5699 10.4368 20.1203 11.1836C19.371 10.2874 18.3219 9.83936 16.8233 9.83936C13.3764 9.83936 10.529 12.6772 10.529 16.4113C10.529 20.2947 13.3764 22.9833 16.6734 22.9833C18.0222 22.9833 19.2211 22.5352 20.1203 21.639C20.5699 22.5352 21.1693 22.9833 22.0685 22.9833C23.4173 22.9833 24.0167 22.0871 24.0167 20.2947V12.8266C24.1666 10.8849 23.5671 9.98872 22.0685 9.98872ZM17.4227 18.9505C16.0739 18.9505 14.875 17.7556 14.875 16.4113C14.875 15.067 16.0739 13.8721 17.4227 13.8721C18.7715 13.8721 19.9704 15.067 19.9704 16.4113C19.9704 17.9049 18.9214 18.9505 17.4227 18.9505Z" fill="white"/>
<path d="M33.3079 9.98853C29.4114 9.98853 26.564 12.677 26.564 16.5605C26.564 20.2945 29.4114 23.1324 33.3079 23.1324C37.2044 23.1324 40.0518 20.4439 40.0518 16.5605C40.0518 12.677 37.2044 9.98853 33.3079 9.98853ZM33.3079 18.9503C31.9591 18.9503 30.7602 17.7554 30.7602 16.4111C30.7602 15.0669 31.9591 13.8719 33.3079 13.8719C34.6567 13.8719 35.8556 15.0669 35.8556 16.4111C35.8556 17.9047 34.6567 18.9503 33.3079 18.9503Z" fill="white"/>
<path d="M38.1035 28.0614L37.9537 27.464L37.6539 27.9121L37.3542 27.464V28.0614H37.2043V27.3146H37.3542L37.6539 27.7627L37.9537 27.3146H38.1035V28.0614ZM37.2043 27.464H36.9046V28.2108H36.7547V27.464H36.455V27.3146L37.2043 27.464ZM38.1035 26.4185H34.6567C34.2071 26.4185 33.7575 26.7172 33.7575 27.1653C33.6076 28.9576 32.7084 30.6006 31.2098 31.7955C29.5613 33.2891 27.4632 34.0359 25.3651 34.0359C23.267 34.0359 21.1689 33.1398 19.5204 31.7955C18.0218 30.4512 17.1226 28.8083 16.9727 27.1653C16.9727 26.7172 16.5231 26.4185 16.0735 26.4185H12.4768C11.8774 26.4185 11.5776 26.8665 11.5776 27.464C11.8774 30.75 13.376 33.7372 15.9237 35.9777C18.4714 38.2181 21.9182 39.5624 25.3651 39.5624C28.812 39.5624 32.2588 38.2181 34.8065 35.9777C37.3542 33.7372 38.8528 30.75 39.1526 27.464C39.1526 26.8665 38.703 26.4185 38.1035 26.4185Z" fill="white"/>
<path d="M233.676 49.1221V37.1731H238.622C239.971 37.1731 241.169 37.6212 242.069 38.368C242.968 39.1148 243.268 40.1603 243.268 41.3552C243.268 42.6995 242.818 43.745 241.919 44.4919C241.02 45.2387 239.821 45.5374 238.472 45.5374H236.524V49.1221H233.676ZM236.374 43.1476H238.472C239.071 43.1476 239.671 42.9982 239.971 42.6995C240.42 42.4008 240.57 41.9527 240.57 41.3552C240.57 40.7578 240.42 40.3097 239.971 40.011C239.521 39.7123 239.071 39.5629 238.322 39.5629H236.224V43.1476H236.374Z" fill="white"/>
<path d="M248.363 49.2711C247.164 49.2711 246.265 48.823 245.366 47.9269C244.466 47.0307 244.167 45.9851 244.167 44.4915C244.167 42.9979 244.616 41.803 245.366 41.0562C246.115 40.16 247.164 39.7119 248.363 39.7119C249.562 39.7119 250.461 40.16 251.21 41.0562V39.8613H253.758V49.1218H251.21V47.7775C250.461 48.823 249.562 49.2711 248.363 49.2711ZM247.464 46.4332C247.913 46.8813 248.363 47.18 249.112 47.18C249.712 47.18 250.311 46.8813 250.761 46.4332C251.21 45.9851 251.36 45.3877 251.36 44.6409C251.36 43.8941 251.21 43.2966 250.761 42.8485C250.311 42.4004 249.862 42.1017 249.112 42.1017C248.513 42.1017 247.913 42.4004 247.464 42.8485C247.014 43.2966 246.864 43.8941 246.864 44.6409C246.714 45.3877 247.014 45.9851 247.464 46.4332Z" fill="white"/>
<path d="M255.856 49.1219V39.8615H258.403V41.6538C259.003 40.3096 260.052 39.5627 261.401 39.5627V42.2513H261.251C260.351 42.2513 259.602 42.55 259.153 42.9981C258.703 43.5955 258.403 44.3423 258.403 45.3879V48.8232H255.856V49.1219Z" fill="white"/>
<path d="M266.196 49.2709C265.297 49.2709 264.698 49.1215 264.248 48.6734C263.799 48.2253 263.499 47.4785 263.499 46.5824V42.2508H262.45V40.0104H263.499V37.6206H266.046V40.0104H268.145V42.2508H266.046V46.1343C266.046 46.7317 266.346 47.0304 266.946 47.0304C267.395 47.0304 267.845 46.8811 268.294 46.7317V48.8228C267.695 49.1215 266.946 49.2709 266.196 49.2709Z" fill="white"/>
<path d="M282.831 47.9269C281.932 48.823 280.733 49.2711 279.235 49.2711C277.736 49.2711 276.687 48.823 275.638 47.9269C274.739 47.0307 274.289 45.8358 274.289 44.4915C274.289 43.1473 274.739 41.9524 275.788 41.0562C276.687 40.16 277.886 39.7119 279.385 39.7119C280.733 39.7119 281.932 40.16 282.981 41.0562C283.88 41.9524 284.33 43.1473 284.33 44.4915C284.18 45.9851 283.731 47.0307 282.831 47.9269ZM279.235 47.18C279.984 47.18 280.583 46.8813 281.033 46.4332C281.483 45.9851 281.633 45.3877 281.633 44.6409C281.633 43.8941 281.333 43.2966 280.883 42.8485C280.434 42.4004 279.834 42.1017 279.085 42.1017C278.335 42.1017 277.736 42.4004 277.286 42.8485C276.837 43.2966 276.687 43.8941 276.687 44.6409C276.687 45.3877 276.987 45.9851 277.436 46.4332C277.886 46.8813 278.485 47.18 279.235 47.18Z" fill="white"/>
<path d="M286.278 49.1219V42.2512H285.229V40.1601H286.278V39.5627C286.278 38.5172 286.577 37.7703 287.027 37.3223C287.477 36.8742 288.226 36.5754 289.125 36.5754C289.874 36.5754 290.474 36.7248 290.923 36.8742V38.9652C290.474 38.8159 290.174 38.6665 289.725 38.6665C289.125 38.6665 288.825 38.9652 288.825 39.712V40.0108H290.923V42.2512H288.825V49.2712H286.278V49.1219Z" fill="white"/>
<path d="M299.916 49.2709C299.017 49.2709 298.417 49.1215 297.967 48.6734C297.518 48.2253 297.218 47.4785 297.218 46.5824V42.2508H296.169V40.0104H297.218V37.6206H299.766V40.0104H301.864V42.2508H299.766V46.1343C299.766 46.7317 300.066 47.0304 300.665 47.0304C301.115 47.0304 301.564 46.8811 302.014 46.7317V48.8228C301.414 49.1215 300.665 49.2709 299.916 49.2709Z" fill="white"/>
<path d="M303.662 49.1219V36.5754H306.21V41.2057C306.959 40.1601 307.858 39.712 308.908 39.712C309.957 39.712 310.706 40.0108 311.155 40.6082C311.755 41.2057 312.055 42.1018 312.055 43.1474V49.1219H309.507V44.0436C309.507 43.4461 309.357 42.998 309.057 42.6993C308.758 42.4006 308.458 42.2512 307.858 42.2512C307.409 42.2512 306.959 42.4006 306.66 42.6993C306.36 42.998 306.21 43.4461 306.21 44.0436V49.1219H303.662Z" fill="white"/>
<path d="M318.349 49.4203C317 49.4203 315.801 48.9722 314.902 48.076C314.003 47.1799 313.553 45.9849 313.553 44.6407C313.553 43.2964 314.003 42.1015 314.902 41.2053C315.801 40.3092 316.85 39.8611 318.199 39.8611C319.697 39.8611 320.747 40.3092 321.496 41.3547C322.245 42.2509 322.695 43.4458 322.695 44.9394C322.695 45.0888 322.695 45.2381 322.695 45.6862H316.251C316.4 46.2837 316.7 46.7318 317 47.0305C317.45 47.3292 317.899 47.4786 318.499 47.4786C319.248 47.4786 319.997 47.1799 320.747 46.5824L322.245 47.9267C321.196 48.8228 319.997 49.4203 318.349 49.4203ZM316.101 43.8939H319.997C319.847 43.2964 319.697 42.8483 319.398 42.4002C319.098 41.9522 318.648 41.8028 318.049 41.8028C317.45 41.8028 317.15 41.9522 316.7 42.4002C316.4 42.699 316.251 43.2964 316.101 43.8939Z" fill="white"/>
<path d="M328.24 49.1213L333.336 37.0229H335.733L340.829 49.1213H337.981L336.932 46.4328H331.837L330.788 49.1213H328.24ZM333.036 44.1923H336.183L334.534 40.3089L333.036 44.1923Z" fill="white"/>
<path d="M352.218 47.6285C351.019 48.8234 349.521 49.4208 347.572 49.4208C345.774 49.4208 344.275 48.8234 342.927 47.6285C341.728 46.4336 341.128 44.9399 341.128 43.297C341.128 41.5046 341.728 40.1603 342.927 38.9654C344.125 37.7705 345.624 37.1731 347.572 37.1731C349.521 37.1731 350.869 37.7705 352.218 38.9654C353.417 40.1603 354.017 41.654 354.017 43.297C354.017 44.9399 353.417 46.2842 352.218 47.6285ZM345.025 45.8361C345.774 46.5829 346.523 46.8817 347.572 46.8817C348.621 46.8817 349.521 46.5829 350.12 45.8361C350.869 45.0893 351.169 44.1931 351.169 43.1476C351.169 42.1021 350.869 41.2059 350.12 40.4591C349.371 39.7123 348.621 39.4135 347.572 39.4135C346.523 39.4135 345.624 39.7123 345.025 40.4591C344.275 41.2059 343.976 42.1021 343.976 43.1476C343.976 44.1931 344.425 45.0893 345.025 45.8361Z" fill="white"/>
<path d="M361.06 49.1219V42.2512H360.011V40.1601H361.06V39.5627C361.06 38.5172 361.36 37.7703 361.809 37.3223C362.259 36.8742 363.008 36.5754 363.907 36.5754C364.657 36.5754 365.256 36.7248 365.706 36.8742V38.9652C365.256 38.8159 364.956 38.6665 364.507 38.6665C363.907 38.6665 363.608 38.9652 363.608 39.712V40.0108H365.706V42.2512H363.608V49.2712H361.06V49.1219Z" fill="white"/>
<path d="M370.502 49.2711C369.303 49.2711 368.404 48.823 367.505 47.9269C366.605 47.0307 366.306 45.9851 366.306 44.4915C366.306 42.9979 366.755 41.803 367.505 41.0562C368.254 40.16 369.303 39.7119 370.502 39.7119C371.701 39.7119 372.6 40.16 373.349 41.0562V39.8613H375.897V49.1218H373.349V47.7775C372.6 48.823 371.701 49.2711 370.502 49.2711ZM369.603 46.4332C370.052 46.8813 370.502 47.18 371.251 47.18C371.851 47.18 372.45 46.8813 372.9 46.4332C373.349 45.9851 373.499 45.3877 373.499 44.6409C373.499 43.8941 373.349 43.2966 372.9 42.8485C372.45 42.4004 372.001 42.1017 371.251 42.1017C370.652 42.1017 370.052 42.4004 369.603 42.8485C369.153 43.2966 369.003 43.8941 369.003 44.6409C368.853 45.3877 369.153 45.9851 369.603 46.4332Z" fill="white"/>
<path d="M377.995 49.1218V39.8613H380.542V41.2055C381.292 40.16 382.191 39.7119 383.24 39.7119C384.439 39.7119 385.338 40.16 385.787 41.2055C386.687 40.16 387.586 39.7119 388.785 39.7119C389.834 39.7119 390.583 40.0106 391.033 40.6081C391.632 41.2055 391.782 41.9524 391.782 43.1473V49.1218H389.234V44.0434C389.234 42.8485 388.785 42.1017 387.736 42.1017C387.286 42.1017 386.836 42.2511 386.537 42.5498C386.237 42.8485 386.087 43.2966 386.087 43.8941V48.9724H383.539V43.8941C383.539 42.6992 383.09 41.9524 382.041 41.9524C381.591 41.9524 381.142 42.1017 380.842 42.4004C380.542 42.6992 380.392 43.1473 380.392 43.7447V48.823H377.995V49.1218Z" fill="white"/>
<path d="M394.031 36.5754H396.728V38.9652H394.031V36.5754ZM394.18 40.0108H396.728V49.2712H394.18V40.0108Z" fill="white"/>
<path d="M401.523 36.5754H398.975V49.1219H401.523V36.5754Z" fill="white"/>
<path d="M405.869 51.9594C404.97 51.9594 404.221 51.8101 403.471 51.362L404.371 49.4203C404.82 49.719 405.12 49.719 405.42 49.719C405.869 49.719 406.169 49.5696 406.319 49.1216L402.722 39.8611H405.42L407.518 46.1343L409.466 39.8611H412.163L408.567 49.2709C408.267 50.1671 407.817 50.9139 407.368 51.2126C407.368 51.8101 406.768 51.9594 405.869 51.9594Z" fill="white"/>
</svg>
